# xmcd CD database file
#
# Track frame offsets:
#	150
#	10430
#	26802
#	36169
#	48815
#	67856
#	80255
#
# Disc length: 1185 seconds
#
# Revision: 0
# Processed by: cddbd v1.5.2PL0 Copyright (c) Steve Scherf et al.
# Submitted via: CDex 1.51
#
DISCID=4c049f07
DTITLE=Chicks on Swing - One Fine Day
DYEAR=2013
DGENRE=Jazz
TTITLE0=Satin Doll
TTITLE1=It Don't Mean A Thing
TTITLE2=Java Jive
TTITLE3=Bei mir bist du schön
TTITLE4=Mood Indigo
TTITLE5=Lullaby Of Birdland
TTITLE6=All Of Me
EXTD=YEAR: 2013
EXTT0=
EXTT1=
EXTT2=
EXTT3=
EXTT4=
EXTT5=
EXTT6=
PLAYORDER=
